<?xml version="1.0" encoding="iso-8859-1"?>
<!-- Generator: Adobe Illustrator 17.1.0, SVG Export Plug-In . SVG Version: 6.00 Build 0)  -->
<!DOCTYPE svg PUBLIC "-//W3C//DTD SVG 1.0//EN" "http://www.w3.org/TR/2001/REC-SVG-20010904/DTD/svg10.dtd">
<svg version="1.0" xmlns="http://www.w3.org/2000/svg" xmlns:xlink="http://www.w3.org/1999/xlink" x="0px" y="0px" width="110px"
	 height="110px" viewBox="0 0 110 110" style="enable-background:new 0 0 110 110;" xml:space="preserve">
<g id="Artboard" style="display:none;">
	<rect x="-991" y="-71" style="display:inline;fill:#8C8C8C;" width="1412" height="743"/>
</g>
<g id="R-Multicolor" style="display:none;">
	<circle style="display:inline;fill:#E04F5F;" cx="55" cy="55" r="55"/>
	<g style="display:inline;">
		<path style="fill:#E2E4E5;" d="M79,84c0,1.657-1.343,3-3,3H34c-1.657,0-3-1.343-3-3V40h48V84z"/>
		<path style="fill:#F0F1F1;" d="M55,40H31v44c0,1.657,1.343,3,3,3h21V40z"/>
		<path style="fill:#E2E4E5;" d="M67,28v3h-4v-3c0-0.55-0.45-1-1-1H48c-0.55,0-1,0.45-1,1v3h-4v-3c0-2.76,2.24-5,5-5h14
			C64.76,23,67,25.24,67,28z"/>
		<path style="fill:#FFFFFF;" d="M85,34v4c0,1.105-0.895,2-2,2H27c-1.105,0-2-0.895-2-2v-4c0-1.66,1.34-3,3-3h54
			C83.66,31,85,32.34,85,34z"/>
		<rect x="40" y="47" style="fill:#CFD3D4;" width="4" height="32"/>
		<rect x="49" y="47" style="fill:#CFD3D4;" width="4" height="32"/>
		<rect x="58" y="47" style="fill:#CFD3D4;" width="4" height="32"/>
		<rect x="67" y="47" style="fill:#CFD3D4;" width="4" height="32"/>
	</g>
</g>
<g id="Multicolor">
	<g>
		<path style="fill:#E2E4E5;" d="M79,84c0,1.657-1.343,3-3,3H34c-1.657,0-3-1.343-3-3V40h48V84z"/>
		<path style="fill:#F0F1F1;" d="M55,40H31v44c0,1.657,1.343,3,3,3h21V40z"/>
		<path style="fill:#E2E4E5;" d="M67,28v3h-4v-3c0-0.55-0.45-1-1-1H48c-0.55,0-1,0.45-1,1v3h-4v-3c0-2.76,2.24-5,5-5h14
			C64.76,23,67,25.24,67,28z"/>
		<path style="fill:#FFFFFF;" d="M85,34v4c0,1.105-0.895,2-2,2H27c-1.105,0-2-0.895-2-2v-4c0-1.66,1.34-3,3-3h54
			C83.66,31,85,32.34,85,34z"/>
		<rect x="40" y="47" style="fill:#CFD3D4;" width="4" height="32"/>
		<rect x="49" y="47" style="fill:#CFD3D4;" width="4" height="32"/>
		<rect x="58" y="47" style="fill:#CFD3D4;" width="4" height="32"/>
		<rect x="67" y="47" style="fill:#CFD3D4;" width="4" height="32"/>
	</g>
</g>
<g id="Blue" style="display:none;">
	<g style="display:inline;">
		<g>
			<path style="fill:#E1F5FA;" d="M79.003,84c0,1.657-1.343,3-3,3h-42c-1.657,0-3-1.343-3-3V40h48V84z"/>
		</g>
		<g>
			<path style="fill:#FFFFFF;" d="M55.003,40h-24v44c0,1.657,1.343,3,3,3h21V40z"/>
		</g>
		<g>
			<path style="fill:#FFFFFF;" d="M67.003,28v3h-4v-3c0-0.55-0.45-1-1-1h-14c-0.55,0-1,0.45-1,1v3h-4v-3c0-2.76,2.24-5,5-5h14
				C64.763,23,67.003,25.24,67.003,28z"/>
		</g>
		<g>
			<path style="fill:#BBE7F2;" d="M85.003,34v4c0,1.105-0.896,2-2,2h-56c-1.104,0-2-0.895-2-2v-4c0-1.66,1.34-3,3-3h54
				C83.663,31,85.003,32.34,85.003,34z"/>
		</g>
		<g>
			<rect x="40.003" y="47" style="fill:#81D2EB;" width="4" height="32"/>
		</g>
		<g>
			<rect x="49.003" y="47" style="fill:#81D2EB;" width="4" height="32"/>
		</g>
		<g>
			<rect x="58.003" y="47" style="fill:#81D2EB;" width="4" height="32"/>
		</g>
		<g>
			<rect x="67.003" y="47" style="fill:#81D2EB;" width="4" height="32"/>
		</g>
		<path style="fill:#E1F5FA;" d="M55.003,31h-27c-1.66,0-3,1.34-3,3v4c0,1.104,0.896,2,2,2h28V31z"/>
	</g>
</g>
<g id="R-Blue" style="display:none;">
	<g style="display:inline;">
		<circle style="fill:#81D2EB;" cx="55" cy="55" r="55"/>
	</g>
	<g style="display:inline;">
		<g>
			<path style="fill:#E1F5FA;" d="M79,84c0,1.657-1.343,3-3,3H34c-1.657,0-3-1.343-3-3V40h48V84z"/>
		</g>
		<g>
			<path style="fill:#FFFFFF;" d="M55,40H31v44c0,1.657,1.343,3,3,3h21V40z"/>
		</g>
		<g>
			<path style="fill:#FFFFFF;" d="M67,28v3h-4v-3c0-0.55-0.45-1-1-1H48c-0.55,0-1,0.45-1,1v3h-4v-3c0-2.76,2.24-5,5-5h14
				C64.76,23,67,25.24,67,28z"/>
		</g>
		<g>
			<path style="fill:#BBE7F2;" d="M85,34v4c0,1.105-0.896,2-2,2H27c-1.104,0-2-0.895-2-2v-4c0-1.66,1.34-3,3-3h54
				C83.66,31,85,32.34,85,34z"/>
		</g>
		<g>
			<rect x="40" y="47" style="fill:#81D2EB;" width="4" height="32"/>
		</g>
		<g>
			<rect x="49" y="47" style="fill:#81D2EB;" width="4" height="32"/>
		</g>
		<g>
			<rect x="58" y="47" style="fill:#81D2EB;" width="4" height="32"/>
		</g>
		<g>
			<rect x="67" y="47" style="fill:#81D2EB;" width="4" height="32"/>
		</g>
		<path style="fill:#E1F5FA;" d="M55,31H28c-1.66,0-3,1.34-3,3v4c0,1.104,0.896,2,2,2h28V31z"/>
	</g>
</g>
<g id="Green" style="display:none;">
	<g style="display:inline;">
		<g>
			<path style="fill:#D7FCF9;" d="M79.003,84c0,1.657-1.343,3-3,3h-42c-1.657,0-3-1.343-3-3V40h48V84z"/>
		</g>
		<g>
			<path style="fill:#FFFFFF;" d="M55.003,40h-24v44c0,1.657,1.343,3,3,3h21V40z"/>
		</g>
		<g>
			<path style="fill:#FFFFFF;" d="M67.003,28v3h-4v-3c0-0.55-0.45-1-1-1h-14c-0.55,0-1,0.45-1,1v3h-4v-3c0-2.76,2.24-5,5-5h14
				C64.763,23,67.003,25.24,67.003,28z"/>
		</g>
		<g>
			<path style="fill:#AAF0E9;" d="M85.003,34v4c0,1.105-0.896,2-2,2h-56c-1.104,0-2-0.895-2-2v-4c0-1.66,1.34-3,3-3h54
				C83.663,31,85.003,32.34,85.003,34z"/>
		</g>
		<g>
			<rect x="40.003" y="47" style="fill:#87E0C8;" width="4" height="32"/>
		</g>
		<g>
			<rect x="49.003" y="47" style="fill:#87E0C8;" width="4" height="32"/>
		</g>
		<g>
			<rect x="58.003" y="47" style="fill:#87E0C8;" width="4" height="32"/>
		</g>
		<g>
			<rect x="67.003" y="47" style="fill:#87E0C8;" width="4" height="32"/>
		</g>
		<path style="fill:#D7FCF9;" d="M55.003,31h-27c-1.66,0-3,1.34-3,3v4c0,1.104,0.896,2,2,2h28V31z"/>
	</g>
</g>
<g id="R-Green" style="display:none;">
	<g style="display:inline;">
		<circle style="fill:#87E0C8;" cx="55" cy="55" r="55"/>
	</g>
	<g style="display:inline;">
		<g>
			<path style="fill:#D7FCF9;" d="M79,84c0,1.657-1.343,3-3,3H34c-1.657,0-3-1.343-3-3V40h48V84z"/>
		</g>
		<g>
			<path style="fill:#FFFFFF;" d="M55,40H31v44c0,1.657,1.343,3,3,3h21V40z"/>
		</g>
		<g>
			<path style="fill:#FFFFFF;" d="M67,28v3h-4v-3c0-0.55-0.45-1-1-1H48c-0.55,0-1,0.45-1,1v3h-4v-3c0-2.76,2.24-5,5-5h14
				C64.76,23,67,25.24,67,28z"/>
		</g>
		<g>
			<path style="fill:#AAF0E9;" d="M85,34v4c0,1.105-0.896,2-2,2H27c-1.104,0-2-0.895-2-2v-4c0-1.66,1.34-3,3-3h54
				C83.66,31,85,32.34,85,34z"/>
		</g>
		<g>
			<rect x="40" y="47" style="fill:#87E0C8;" width="4" height="32"/>
		</g>
		<g>
			<rect x="49" y="47" style="fill:#87E0C8;" width="4" height="32"/>
		</g>
		<g>
			<rect x="58" y="47" style="fill:#87E0C8;" width="4" height="32"/>
		</g>
		<g>
			<rect x="67" y="47" style="fill:#87E0C8;" width="4" height="32"/>
		</g>
		<path style="fill:#D7FCF9;" d="M55,31H28c-1.66,0-3,1.34-3,3v4c0,1.104,0.896,2,2,2h28V31z"/>
	</g>
</g>
<g id="Red" style="display:none;">
	<g style="display:inline;">
		<g>
			<path style="fill:#FFEFED;" d="M79,84c0,1.657-1.343,3-3,3H34c-1.657,0-3-1.343-3-3V40h48V84z"/>
		</g>
		<g>
			<path style="fill:#FFFFFF;" d="M55,40H31v44c0,1.657,1.343,3,3,3h21V40z"/>
		</g>
		<g>
			<path style="fill:#FFFFFF;" d="M67,28v3h-4v-3c0-0.55-0.45-1-1-1H48c-0.55,0-1,0.45-1,1v3h-4v-3c0-2.76,2.24-5,5-5h14
				C64.76,23,67,25.24,67,28z"/>
		</g>
		<g>
			<path style="fill:#FFD7D4;" d="M85,34v4c0,1.105-0.896,2-2,2H27c-1.104,0-2-0.895-2-2v-4c0-1.66,1.34-3,3-3h54
				C83.66,31,85,32.34,85,34z"/>
		</g>
		<g>
			<rect x="40" y="47" style="fill:#FABBAF;" width="4" height="32"/>
		</g>
		<g>
			<rect x="49" y="47" style="fill:#FABBAF;" width="4" height="32"/>
		</g>
		<g>
			<rect x="58" y="47" style="fill:#FABBAF;" width="4" height="32"/>
		</g>
		<g>
			<rect x="67" y="47" style="fill:#FABBAF;" width="4" height="32"/>
		</g>
		<path style="fill:#FFEFED;" d="M55,31H28c-1.66,0-3,1.34-3,3v4c0,1.104,0.896,2,2,2h28V31z"/>
	</g>
</g>
<g id="R-Red" style="display:none;">
	<g style="display:inline;">
		<circle style="fill:#FABBAF;" cx="55" cy="55" r="55"/>
	</g>
	<g style="display:inline;">
		<g>
			<path style="fill:#FFEFED;" d="M79,84c0,1.657-1.343,3-3,3H34c-1.657,0-3-1.343-3-3V40h48V84z"/>
		</g>
		<g>
			<path style="fill:#FFFFFF;" d="M55,40H31v44c0,1.657,1.343,3,3,3h21V40z"/>
		</g>
		<g>
			<path style="fill:#FFFFFF;" d="M67,28v3h-4v-3c0-0.55-0.45-1-1-1H48c-0.55,0-1,0.45-1,1v3h-4v-3c0-2.76,2.24-5,5-5h14
				C64.76,23,67,25.24,67,28z"/>
		</g>
		<g>
			<path style="fill:#FFD7D4;" d="M85,34v4c0,1.105-0.896,2-2,2H27c-1.104,0-2-0.895-2-2v-4c0-1.66,1.34-3,3-3h54
				C83.66,31,85,32.34,85,34z"/>
		</g>
		<g>
			<rect x="40" y="47" style="fill:#FABBAF;" width="4" height="32"/>
		</g>
		<g>
			<rect x="49" y="47" style="fill:#FABBAF;" width="4" height="32"/>
		</g>
		<g>
			<rect x="58" y="47" style="fill:#FABBAF;" width="4" height="32"/>
		</g>
		<g>
			<rect x="67" y="47" style="fill:#FABBAF;" width="4" height="32"/>
		</g>
		<path style="fill:#FFEFED;" d="M55,31H28c-1.66,0-3,1.34-3,3v4c0,1.104,0.896,2,2,2h28V31z"/>
	</g>
</g>
<g id="Yellow" style="display:none;">
	<g style="display:inline;">
		<g>
			<path style="fill:#FFF5D9;" d="M79.003,84c0,1.657-1.343,3-3,3h-42c-1.657,0-3-1.343-3-3V40h48V84z"/>
		</g>
		<g>
			<path style="fill:#FFFFFF;" d="M55.003,40h-24v44c0,1.657,1.343,3,3,3h21V40z"/>
		</g>
		<g>
			<path style="fill:#FFFFFF;" d="M67.003,28v3h-4v-3c0-0.55-0.45-1-1-1h-14c-0.55,0-1,0.45-1,1v3h-4v-3c0-2.76,2.24-5,5-5h14
				C64.763,23,67.003,25.24,67.003,28z"/>
		</g>
		<g>
			<path style="fill:#FFE9A1;" d="M85.003,34v4c0,1.105-0.896,2-2,2h-56c-1.104,0-2-0.895-2-2v-4c0-1.66,1.34-3,3-3h54
				C83.663,31,85.003,32.34,85.003,34z"/>
		</g>
		<g>
			<rect x="40.003" y="47" style="fill:#FFD75E;" width="4" height="32"/>
		</g>
		<g>
			<rect x="49.003" y="47" style="fill:#FFD75E;" width="4" height="32"/>
		</g>
		<g>
			<rect x="58.003" y="47" style="fill:#FFD75E;" width="4" height="32"/>
		</g>
		<g>
			<rect x="67.003" y="47" style="fill:#FFD75E;" width="4" height="32"/>
		</g>
		<path style="fill:#FFF5D9;" d="M55.003,31h-27c-1.66,0-3,1.34-3,3v4c0,1.104,0.896,2,2,2h28V31z"/>
	</g>
</g>
<g id="R-Yellow" style="display:none;">
	<g style="display:inline;">
		<circle style="fill:#FFD75E;" cx="55" cy="55" r="55"/>
	</g>
	<g style="display:inline;">
		<g>
			<path style="fill:#FFF5D9;" d="M79,84c0,1.657-1.343,3-3,3H34c-1.657,0-3-1.343-3-3V40h48V84z"/>
		</g>
		<g>
			<path style="fill:#FFFFFF;" d="M55,40H31v44c0,1.657,1.343,3,3,3h21V40z"/>
		</g>
		<g>
			<path style="fill:#FFFFFF;" d="M67,28v3h-4v-3c0-0.55-0.45-1-1-1H48c-0.55,0-1,0.45-1,1v3h-4v-3c0-2.76,2.24-5,5-5h14
				C64.76,23,67,25.24,67,28z"/>
		</g>
		<g>
			<path style="fill:#FFE9A1;" d="M85,34v4c0,1.105-0.896,2-2,2H27c-1.104,0-2-0.895-2-2v-4c0-1.66,1.34-3,3-3h54
				C83.66,31,85,32.34,85,34z"/>
		</g>
		<g>
			<rect x="40" y="47" style="fill:#FFD75E;" width="4" height="32"/>
		</g>
		<g>
			<rect x="49" y="47" style="fill:#FFD75E;" width="4" height="32"/>
		</g>
		<g>
			<rect x="58" y="47" style="fill:#FFD75E;" width="4" height="32"/>
		</g>
		<g>
			<rect x="67" y="47" style="fill:#FFD75E;" width="4" height="32"/>
		</g>
		<path style="fill:#FFF5D9;" d="M55,31H28c-1.66,0-3,1.34-3,3v4c0,1.104,0.896,2,2,2h28V31z"/>
	</g>
</g>
</svg>
