<?xml version="1.0"?>
<svg width="32" height="32" xmlns="http://www.w3.org/2000/svg" xmlns:svg="http://www.w3.org/2000/svg" xmlns:xlink="http://www.w3.org/1999/xlink">
 <g>
  <title>Layer 1</title>
  <g id="icomoon-ignore"/>
  <path id="svg_1" fill="#000000" d="m28.232,6.232l-4.465,-4.464c-0.972,-0.972 -2.893,-1.768 -4.268,-1.768l-15,0c-1.375,0 -2.5,1.125 -2.5,2.5l0,27c0,1.375 1.125,2.5 2.5,2.5l23,0c1.375,0 2.5,-1.125 2.5,-2.5l0,-19c0,-1.375 -0.796001,-3.296 -1.768,-4.268l0.000999,0zm-1.414,1.414c0.098,0.098 0.195,0.218 0.289999,0.354l-5.108,0l0,-5.108c0.136,0.095 0.256001,0.192 0.354,0.29l4.465,4.464l-0.000999,0zm1.181999,21.854c0,0.271 -0.229,0.5 -0.5,0.5l-23,0c-0.271,0 -0.5,-0.229 -0.5,-0.5l0,-27c0,-0.271 0.229,-0.5 0.5,-0.5l15,0c0.151001,0 0.32,0.019 0.5,0.053l0,7.947l7.947001,0c0.034,0.18 0.052999,0.349 0.052999,0.5l0,19z"/>
  <use x="74.085954" y="116.896919" transform="matrix(0.4740819214831049,0,0,0.4992048184334692,-27.579276520893472,-46.94319972859148) " xlink:href="#svg_3" id="svg_4"/>
 </g>
 <defs>
  <symbol viewBox="-76 212 458 369" y="0px" x="0px" id="svg_3" xmlns:xlink="http://www.w3.org/1999/xlink" xmlns="http://www.w3.org/2000/svg">
   <title>CoffeeScript Logo</title>
   <g>
    <g>
     <path d="m106,228.600006c0.5,2.300003 -0.900002,4.400009 -5,6.5c-5.5,-3.099991 -16.900002,-4.399994 -26.699997,-3.5c-10.400002,0.900009 -19.400002,4.199997 -17.900002,11.300003c1.5,7.100006 11.699997,11 29.5,9.5c43.599998,-3.800003 43.400002,-33.300003 107.400002,-39c49.800003,-4.399994 77.800003,11 81.800003,29.699997c3.100006,14.700012 -9.100006,28.600006 -45.200012,31.800018c-32,2.799988 -50.699997,-5.600006 -52.599991,-14.600006c-1,-4.500015 1.800003,-11.300003 17.200012,-13.100006c1.5,7 10.599991,14.399994 31.099991,12.600006c14.800003,-1.300018 27.600006,-6.600006 25.900009,-14.900009c-1.800003,-8.600006 -17.700012,-13.699997 -42.600006,-11.5c-50.699997,4.5 -63.199997,32.500015 -106.800011,36.300003c-30.799995,2.700012 -55.899998,-8.5 -59.399998,-25.100006c-1.299999,-6.099991 -1.400002,-21 31.200001,-23.899994c17.099998,-1.500015 30.699997,1.499985 32.099998,7.899994l0,0zm-162.400002,173.899994c-14.299995,18 -20.400002,38.799988 -19.199997,59.200012c1.199997,20.399994 11.400002,37.099976 26.899998,50.199982c16.700001,13.100006 34.700001,16.699982 55.100001,13.100006c7.8,-1.200012 16.7,-5.299988 24.5,-7.799988c-16.7,0 -31,-5.300018 -44.9,-16.700012c-15.5,-11.399994 -25.700001,-26.899994 -28.200001,-46.100006c-3.700001,-18 0,-34.699982 10.200001,-49c11.4,-14.299988 25.7,-22 44.9,-24.5c19.199999,-1.199982 35.9,3.700012 52.6,15.5c-3.700001,-5.299988 -9,-9 -14.299999,-14.299988c-16.700001,-11.399994 -34.700001,-16.700012 -56.700001,-11.399994c-19.9,3.599976 -36.700001,13.799988 -50.900002,31.799988zm223.599998,-96.299988c-53.899994,0 -101.599998,-5.299988 -136.300007,-13.100006c-37.09999,-9 -56.700001,-19.199982 -56.700001,-32.199982c0,-5.300018 2.400002,-10.200012 10.200001,-15.500015c-23.299999,9 -35.900002,16.699997 -35.900002,28.199997c1.200001,13.100006 22.000002,25.700012 64.500002,35.899994c39.999998,10.200012 91.399996,15.5 152.999994,15.5c62.800003,0 113.000015,-5.299988 153.000015,-15.5c42.399994,-10.199982 62.799988,-23.299988 62.799988,-35.899994c0,-9 -9,-18 -25.700012,-24.5c3.700012,2.400009 6.5,6.5 6.5,11.399994c0,13.100006 -19.199982,23.300018 -57.899994,32.200012c-35.999969,8.199982 -82.099976,13.5 -137.499985,13.5l0,0zm153.000015,35.899994c-40,9 -91.400009,15.5 -153,15.5c-62.800003,0 -114.199993,-6.5 -154.199992,-15.5c-35.90001,-9 -55.099999,-19.199982 -61.599999,-29.399994c6.5,44.899994 22,87.299988 42.4,124.799988c15.5,23.300018 31,43.700012 46.1,65.700012c6.5,13.099976 11.399998,25.700012 14.299999,38.799988c10.199997,14.299988 24.5,23.299988 42.400002,28.200012c22,7.799988 44.899994,11.400024 68.100006,10.200012l2.399994,0c23.300003,1.200012 47.699997,-2.400024 70.600006,-10.200012c16.699997,-5.299988 30.999985,-14.299988 41.199997,-28.200012l1.199982,0c2.400024,-13.099976 6.5,-25.700012 13.100006,-38.799988c15.5,-22 31,-42.400024 46.100006,-65.700012c20.399994,-37.099976 34.700012,-79.599976 42.399994,-124.799988c-7.700012,11.399994 -26.900024,21.599976 -61.5,29.399994l0,0z" fill="#28334C"/>
    </g>
   </g>
  </symbol>
 </defs>
</svg>